
<svg fill="none" height="100%" width="100%" viewBox="0 0 600 600" xmlns:xlink="http://www.w3.org/1999/xlink" xmlns="http://www.w3.org/2000/svg"><g opacity="0.88" id="i0"><animate repeatCount="indefinite" attributeName="opacity" dur="1.017s" begin="0s" fill="freeze" values="0.88; 0; 1; 0.88; 0.88" keyTimes="0; 0.885246; 0.90164; 0.983607; 1" keySplines="0 0 1 1; 0 0 1 1; 0 0 1 1; 0 0 1 1" calcMode="spline" /><g transform="translate(300,300) rotate(-210) scale(1,1) translate(0,0)"><g id="i1" transform="matrix(1,0,0,1,-11,82)"><path stroke-linecap="round" stroke-width="40" stroke="#000000" d="M13,22C13,22,13,124,13,124" /></g></g></g><g opacity="0.8" id="i2"><animate repeatCount="indefinite" attributeName="opacity" dur="1.017s" begin="0s" fill="freeze" values="0.8; 0; 1; 0.8; 0.8" keyTimes="0; 0.803279; 0.819672; 0.983607; 1" keySplines="0 0 1 1; 0 0 1 1; 0 0 1 1; 0 0 1 1" calcMode="spline" /><g transform="translate(300,300) rotate(-240) scale(1,1) translate(0,0)"><g id="i1" transform="matrix(1,0,0,1,-11,82)"><path stroke-linecap="round" stroke-width="40" stroke="#000000" d="M13,22C13,22,13,124,13,124" /></g></g></g><g opacity="0.72" id="i3"><animate repeatCount="indefinite" attributeName="opacity" dur="1.017s" begin="0s" fill="freeze" values="0.72; 0; 1; 0.72; 0.72" keyTimes="0; 0.721311; 0.737705; 0.983607; 1" keySplines="0 0 1 1; 0 0 1 1; 0 0 1 1; 0 0 1 1" calcMode="spline" /><g transform="translate(300,300) rotate(-270) scale(1,1) translate(0,0)"><g id="i1" transform="matrix(1,0,0,1,-11,82)"><path stroke-linecap="round" stroke-width="40" stroke="#000000" d="M13,22C13,22,13,124,13,124" /></g></g></g><g opacity="0.64" id="i4"><animate repeatCount="indefinite" attributeName="opacity" dur="1.017s" begin="0s" fill="freeze" values="0.64; 0; 1; 0.64; 0.64" keyTimes="0; 0.639344; 0.655738; 0.983607; 1" keySplines="0 0 1 1; 0 0 1 1; 0 0 1 1; 0 0 1 1" calcMode="spline" /><g transform="translate(300,300) rotate(-300) scale(1,1) translate(0,0)"><g id="i1" transform="matrix(1,0,0,1,-11,82)"><path stroke-linecap="round" stroke-width="40" stroke="#000000" d="M13,22C13,22,13,124,13,124" /></g></g></g><g opacity="0.56" id="i5"><animate repeatCount="indefinite" attributeName="opacity" dur="1.017s" begin="0s" fill="freeze" values="0.56; 0; 1; 0.56; 0.56" keyTimes="0; 0.557377; 0.57377; 0.983607; 1" keySplines="0 0 1 1; 0 0 1 1; 0 0 1 1; 0 0 1 1" calcMode="spline" /><g transform="translate(300,300) rotate(-330) scale(1,1) translate(0,0)"><g id="i1" transform="matrix(1,0,0,1,-11,82)"><path stroke-linecap="round" stroke-width="40" stroke="#000000" d="M13,22C13,22,13,124,13,124" /></g></g></g><g opacity="0.48" id="i6"><animate repeatCount="indefinite" attributeName="opacity" dur="1.017s" begin="0s" fill="freeze" values="0.48; 0; 1; 0.48; 0.48" keyTimes="0; 0.47541; 0.491803; 0.983607; 1" keySplines="0 0 1 1; 0 0 1 1; 0 0 1 1; 0 0 1 1" calcMode="spline" /><g transform="translate(300,300) scale(1,1) translate(0,0)"><g id="i1" transform="matrix(1,0,0,1,-11,82)"><path stroke-linecap="round" stroke-width="40" stroke="#000000" d="M13,22C13,22,13,124,13,124" /></g></g></g><g opacity="0.4" id="i7"><animate repeatCount="indefinite" attributeName="opacity" dur="1.017s" begin="0s" fill="freeze" values="0.4; 0; 1; 0.4; 0.4" keyTimes="0; 0.393443; 0.409836; 0.983607; 1" keySplines="0 0 1 1; 0 0 1 1; 0 0 1 1; 0 0 1 1" calcMode="spline" /><g transform="translate(300,300) rotate(-30) scale(1,1) translate(0,0)"><g id="i1" transform="matrix(1,0,0,1,-11,82)"><path stroke-linecap="round" stroke-width="40" stroke="#000000" d="M13,22C13,22,13,124,13,124" /></g></g></g><g opacity="0.32" id="i8"><animate repeatCount="indefinite" attributeName="opacity" dur="1.017s" begin="0s" fill="freeze" values="0.32; 0; 1; 0.32; 0.32" keyTimes="0; 0.311476; 0.327869; 0.983607; 1" keySplines="0 0 1 1; 0 0 1 1; 0 0 1 1; 0 0 1 1" calcMode="spline" /><g transform="translate(300,300) rotate(-60) scale(1,1) translate(0,0)"><g id="i1" transform="matrix(1,0,0,1,-11,82)"><path stroke-linecap="round" stroke-width="40" stroke="#000000" d="M13,22C13,22,13,124,13,124" /></g></g></g><g opacity="0.24" id="i9"><animate repeatCount="indefinite" attributeName="opacity" dur="1.017s" begin="0s" fill="freeze" values="0.24; 0; 1; 0.24; 0.24" keyTimes="0; 0.229508; 0.245902; 0.983607; 1" keySplines="0 0 1 1; 0 0 1 1; 0 0 1 1; 0 0 1 1" calcMode="spline" /><g transform="translate(300,300) rotate(-90) scale(1,1) translate(0,0)"><g id="i1" transform="matrix(1,0,0,1,-11,82)"><path stroke-linecap="round" stroke-width="40" stroke="#000000" d="M13,22C13,22,13,124,13,124" /></g></g></g><g opacity="0.16" id="i10"><animate repeatCount="indefinite" attributeName="opacity" dur="1.017s" begin="0s" fill="freeze" values="0.16; 0; 1; 0.16; 0.16" keyTimes="0; 0.147541; 0.163935; 0.983607; 1" keySplines="0 0 1 1; 0 0 1 1; 0 0 1 1; 0 0 1 1" calcMode="spline" /><g transform="translate(300,300) rotate(-120) scale(1,1) translate(0,0)"><g id="i1" transform="matrix(1,0,0,1,-11,82)"><path stroke-linecap="round" stroke-width="40" stroke="#000000" d="M13,22C13,22,13,124,13,124" /></g></g></g><g opacity="0.08" id="i11"><animate repeatCount="indefinite" attributeName="opacity" dur="1.017s" begin="0s" fill="freeze" values="0.08; 0; 1; 0.08; 0.08" keyTimes="0; 0.065574; 0.081967; 0.983607; 1" keySplines="0 0 1 1; 0 0 1 1; 0 0 1 1; 0 0 1 1" calcMode="spline" /><g transform="translate(300,300) rotate(-150) scale(1,1) translate(0,0)"><g id="i1" transform="matrix(1,0,0,1,-11,82)"><path stroke-linecap="round" stroke-width="40" stroke="#000000" d="M13,22C13,22,13,124,13,124" /></g></g></g><g id="i12"><animate repeatCount="indefinite" attributeName="opacity" dur="1.017s" begin="0s" fill="freeze" values="1; 0; 0" keyTimes="0; 0.983607; 1" keySplines="0 0 1 1; 0 0 1 1" calcMode="spline" /><g transform="translate(300,300) rotate(-180) scale(1,1) translate(0,0)"><g id="i1" transform="matrix(1,0,0,1,-11,82)"><path stroke-linecap="round" stroke-width="40" stroke="#000000" d="M13,22C13,22,13,124,13,124" /></g></g></g></svg>