<svg width="222" height="76" viewBox="0 0 222 76" fill="none" xmlns="http://www.w3.org/2000/svg">
<rect x="7" y="9" width="60" height="60" rx="5" fill="#F8A01B"/>
<path d="M79.6123 37.0547L79.002 33.1484C81.4108 31.4557 84.3649 30.6094 87.8643 30.6094C90.9567 30.6094 93.3411 31.2767 95.0176 32.6113C96.7103 33.9297 97.5566 35.8096 97.5566 38.251V51.2881C97.5566 51.9717 97.752 52.5332 98.1426 52.9727C98.5495 53.3958 99.0703 53.6074 99.7051 53.6074C100.242 53.6074 100.796 53.4691 101.365 53.1924L101.609 55.2432C99.9492 55.9756 98.4681 56.3418 97.166 56.3418C96.1732 56.3418 95.335 56.0977 94.6514 55.6094C93.9678 55.1048 93.5202 54.4049 93.3086 53.5098C90.9648 54.5514 89.0687 55.292 87.6201 55.7314C86.1715 56.1709 84.8532 56.3906 83.665 56.3906C81.6305 56.3906 80.0111 55.8291 78.8066 54.7061C77.6022 53.5667 77 52.0449 77 50.1406C77 47.7318 77.9847 45.8193 79.9541 44.4033C81.9398 42.971 84.6579 42.1898 88.1084 42.0596L93.1621 41.8398V37.7383C93.1621 36.2409 92.682 35.0934 91.7217 34.2959C90.7777 33.4984 89.4105 33.0996 87.6201 33.0996C84.8206 33.0996 82.1514 34.418 79.6123 37.0547ZM93.1621 51.4102V44.1104L88.7676 44.2568C86.5378 44.3382 84.7799 44.8428 83.4941 45.7705C82.2083 46.682 81.5654 47.9271 81.5654 49.5059C81.5654 50.7591 81.9398 51.752 82.6885 52.4844C83.4535 53.2005 84.5114 53.5586 85.8623 53.5586C87.4085 53.5586 89.8418 52.8424 93.1621 51.4102Z" fill="#F8A01B"/>
<path d="M105.784 54.0957L106.272 50.0918C108.942 52.6634 111.928 53.9492 115.232 53.9492C117.218 53.9492 118.724 53.6318 119.749 52.9971C120.774 52.346 121.287 51.4102 121.287 50.1895C121.287 49.099 120.807 48.1794 119.847 47.4307C118.903 46.682 117.226 45.9251 114.817 45.1602C111.627 44.1836 109.357 43.085 108.006 41.8643C106.655 40.6436 105.979 39.0892 105.979 37.2012C105.979 35.0527 106.777 33.417 108.372 32.2939C109.967 31.1709 112.303 30.6094 115.379 30.6094C118.699 30.6094 121.482 31.3743 123.729 32.9043L123.167 36.8594C120.791 34.3203 118.13 33.0508 115.184 33.0508C113.523 33.0508 112.254 33.3438 111.375 33.9297C110.512 34.4993 110.081 35.3376 110.081 36.4443C110.081 37.5511 110.569 38.487 111.546 39.252C112.522 40.0169 114.215 40.7819 116.624 41.5469C119.782 42.5234 122.028 43.6221 123.362 44.8428C124.713 46.0472 125.389 47.5853 125.389 49.457C125.389 51.7357 124.502 53.4609 122.728 54.6328C120.953 55.8047 118.317 56.3906 114.817 56.3906C111.139 56.3906 108.128 55.6257 105.784 54.0957Z" fill="#F8A01B"/>
<path d="M130.882 20.4531V19.9893C131.94 19.7451 133.12 19.4115 134.422 18.9883C135.724 18.5488 136.644 18.1826 137.181 17.8896V44.1592L144.285 36.6396C146.596 34.1982 147.524 32.6195 147.068 31.9033C146.971 31.7894 146.857 31.708 146.727 31.6592L146.824 31H154.515L154.417 31.708C153.066 32.0173 150.95 33.6611 148.069 36.6396L144.529 40.4971L150.633 50.458C151.577 51.7926 152.505 52.8994 153.416 53.7783C154.327 54.641 155.101 55.1618 155.735 55.3408L155.784 56H149.632L149.119 55.4385L141.38 43.5L137.181 47.9922V51.2881C137.181 52.3786 137.335 53.29 137.645 54.0225C137.954 54.7386 138.377 55.1781 138.914 55.3408V56H131.028V55.3408C131.565 55.1618 131.989 54.641 132.298 53.7783C132.623 52.8994 132.786 51.7764 132.786 50.4092V25.751C132.786 24.2699 132.615 23.0573 132.273 22.1133C131.948 21.1693 131.484 20.6159 130.882 20.4531Z" fill="#F8A01B"/>
<path d="M161.766 25.165C161.245 24.6279 165.055 23.9362 165.055 23.0898C165.055 22.2435 161.245 21.5599 161.766 21.0391C162.286 20.5182 162.978 20.2578 163.841 20.2578C164.703 20.2578 165.387 20.5182 165.892 21.0391C166.412 21.5599 166.673 22.2435 166.673 23.0898C166.673 23.9525 166.412 24.6442 165.892 25.165C165.371 25.6859 164.687 25.9463 163.841 25.9463C162.978 25.9463 162.286 25.6859 161.766 25.165ZM160.032 32.3916V31.9521C161.009 31.8219 162.148 31.6104 163.45 31.3174C164.752 31.0244 166.331 30.5117 166.331 30.5117V36.6396V50.4092C166.331 51.7601 166.486 52.8831 166.795 53.7783C167.104 54.6572 167.535 55.1781 168.089 55.3408V56H160.179V55.3408C160.716 55.1618 161.139 54.641 161.448 53.7783C161.774 52.8994 161.937 51.7764 161.937 50.4092V37.6895C161.937 36.2246 161.766 35.0202 161.424 34.0762C161.082 33.1322 160.618 32.5706 160.032 32.3916Z" fill="#F8A01B"/>
<path d="M172.703 33.3926V31.293L176.683 30.7559L178.587 25.4092L180.784 25.2383V31H187.449V33.3926H180.784V50.043C180.784 51.1009 181.118 51.9473 181.785 52.582C182.452 53.2005 183.372 53.5098 184.544 53.5098C185.423 53.5098 186.359 53.3714 187.352 53.0947L187.645 55.2432C185.382 56.0081 183.502 56.3906 182.005 56.3906C180.296 56.3906 178.929 55.9186 177.903 54.9746C176.894 54.0306 176.39 52.7692 176.39 51.1904V33.3926H172.703Z" fill="#F8A01B"/>
<path d="M23.6572 29.3389H22.2656L23.2666 21.9902H51.709L52.7588 29.3389H51.3184C51.0091 28.1833 50.3337 27.2718 49.292 26.6045C48.2503 25.9372 46.9238 25.6035 45.3125 25.6035H40.8203V49.7979C40.8203 53.639 41.4876 55.7712 42.8223 56.1943V57H32.2266V56.1943C33.5612 55.7712 34.2285 53.639 34.2285 49.7979V25.6035H29.7119C28.1169 25.6035 26.7904 25.9372 25.7324 26.6045C24.6908 27.2555 23.999 28.167 23.6572 29.3389Z" fill="white"/>
</svg>
